HIERARCHY
ROOT pelvis
{
  OFFSET 0 100 0
  CHANNELS 6 Xposition Yposition Zposition Zrotation Xrotation Yrotation
  JOINT pelvis_right_femur
  {
    OFFSET -10.78128 -3.44521 -0.5502486
    CHANNELS 3 Zrotation Xrotation Yrotation
    JOINT right_femur_tibia
    {
      OFFSET -0.8047443 -44.0398 -0.1307829
      CHANNELS 3 Zrotation Xrotation Yrotation
      JOINT right_tibia_foot
      {
        OFFSET 3.006224 -47.83518 -5
        CHANNELS 3 Zrotation Xrotation Yrotation
        End Site
        {
          OFFSET 0 -5 15
        }
      }
    }
  }
  JOINT pelvis_left_femur
  {
    OFFSET 10.78128 -3.44521 -0.5502486
    CHANNELS 3 Zrotation Xrotation Yrotation
    JOINT left_femur_tibia
    {
      OFFSET 0.8047443 -44.0398 -0.1307829
      CHANNELS 3 Zrotation Xrotation Yrotation
      JOINT left_tibia_foot
      {
        OFFSET -4.370144 -48.10324 -4.275266
        CHANNELS 3 Zrotation Xrotation Yrotation
        End Site
        {
          OFFSET 0 -5 15
        }
      }
    }
  }
  JOINT pelvis_spine1
  {
    OFFSET 0 6.468898 -3.129235
    CHANNELS 3 Zrotation Xrotation Yrotation
    JOINT spine1
    {
      OFFSET 0 23.15396 4.99043
      CHANNELS 3 Zrotation Xrotation Yrotation
      JOINT spine2
      {
        OFFSET 0 20.79997 -5.064912
        CHANNELS 3 Zrotation Xrotation Yrotation
        JOINT neck
        {
          OFFSET 0 14.38658 9.616178
          CHANNELS 3 Zrotation Xrotation Yrotation
          End Site
          {
            OFFSET 0 20 0
          }
        }
      }
      JOINT right_manubrium
      {
        OFFSET -5.722621 16.35077 3.967754
        CHANNELS 3 Zrotation Xrotation Yrotation
        JOINT right_clavicle
        {
          OFFSET -13.16364 1.694482 -4.693211
          CHANNELS 3 Zrotation Xrotation Yrotation
          JOINT right_humerus
          {
            OFFSET -28.5034 -0.3100689 -2.792744
            CHANNELS 3 Zrotation Xrotation Yrotation
            JOINT right_radius
            {
              OFFSET -25.15693 0.02248979 -1.271978
              CHANNELS 3 Zrotation Xrotation Yrotation
              End Site
              {
                OFFSET -15 0 0
              }
            }
          }
        }
      }
      JOINT left_manubrium
      {
        OFFSET 5.722621 16.35077 3.967754
        CHANNELS 3 Zrotation Xrotation Yrotation
        JOINT left_clavicle
        {
          OFFSET 13.16364 1.694482 -4.693211
          CHANNELS 3 Zrotation Xrotation Yrotation
          JOINT left_humerus
          {
            OFFSET 29.39168 -1.063119 -2.237045
            CHANNELS 3 Zrotation Xrotation Yrotation
            JOINT left_radius
            {
              OFFSET 24.59957 -0.9528479 0.9047498
              CHANNELS 3 Zrotation Xrotation Yrotation
              End Site
              {
                OFFSET 15 -0 -0
              }
            }
          }
        }
      }
    }
  }
}
MOTION
Frames: 7
Frame Time: 0.0416666666667
-589.9862 118.7376 2423.344 -4.719141 -1.866746 -65.41779 4.026815 15.86624 -2.790401 -0 16.36849 -0 -13.10187 -16.95547 1.9957 4.407658 -21.91419 -3.247092 -0 4.108702 -0 2.078715 -0.930755 13.62813 -0.4434317 -3.616093 6.877134 0.2928013 13.6819 -5.056749 -1.116969 19.804 4.84718 4.737263 -16.11952 1.978381 5.559109 -26.91983 13.44134 78.31229 27.68909 -5.030662 -0 0 29.54127 -20.43871 14.41643 12.52448 4.70926 -22.92526 -6.421885 -95.95653 7.614191 34.83336 -0 0 1.610009 12.98695 14.41555 -4.750567
-594.2479 118.7071 2426.722 -4.724191 -1.853902 -65.57336 4.026815 15.86624 -2.790401 -0 16.36849 -0 -13.10187 -16.95547 1.9957 4.407658 -21.91419 -3.247092 -0 4.108702 -0 2.078715 -0.930755 13.62813 -0.4434317 -3.616093 6.877134 0.2928013 13.6819 -5.056749 -1.116969 19.804 4.84718 4.737263 -16.11952 1.978381 5.559109 -26.91983 13.44134 78.31229 27.68909 -5.030662 -0 0 29.54127 -20.43871 14.41643 12.52448 4.70926 -22.92526 -6.421885 -95.95653 7.614191 34.83336 -0 0 1.610009 12.98695 14.41555 -4.750567
-598.5188 118.6766 2430.087 -4.729207 -1.841046 -65.72894 4.026815 15.86624 -2.790401 -0 16.36849 -0 -13.10187 -16.95547 1.9957 4.407658 -21.91419 -3.247092 -0 4.108702 -0 2.078715 -0.930755 13.62813 -0.4434317 -3.616093 6.877134 0.2928013 13.6819 -5.056749 -1.116969 19.804 4.84718 4.737263 -16.11952 1.978381 5.559109 -26.91983 13.44134 78.31229 27.68909 -5.030662 -0 0 29.54127 -20.43871 14.41643 12.52448 4.70926 -22.92526 -6.421885 -95.95653 7.614191 34.83336 -0 0 1.610009 12.98695 14.41555 -4.750567
-602.7988 118.646 2433.441 -4.734187 -1.828175 -65.88451 4.026815 15.86624 -2.790401 -0 16.36849 -0 -13.10187 -16.95547 1.9957 4.407658 -21.91419 -3.247092 -0 4.108702 -0 2.078715 -0.930755 13.62813 -0.4434317 -3.616093 6.877134 0.2928013 13.6819 -5.056749 -1.116969 19.804 4.84718 4.737263 -16.11952 1.978381 5.559109 -26.91983 13.44134 78.31229 27.68909 -5.030662 -0 0 29.54127 -20.43871 14.41643 12.52448 4.70926 -22.92526 -6.421885 -95.95653 7.614191 34.83336 -0 0 1.610009 12.98695 14.41555 -4.750567
-607.0879 118.6155 2436.784 -4.739133 -1.815292 -66.04008 4.026815 15.86624 -2.790401 -0 16.36849 -0 -13.10187 -16.95547 1.9957 4.407658 -21.91419 -3.247092 -0 4.108702 -0 2.078715 -0.930755 13.62813 -0.4434317 -3.616093 6.877134 0.2928013 13.6819 -5.056749 -1.116969 19.804 4.84718 4.737263 -16.11952 1.978381 5.559109 -26.91983 13.44134 78.31229 27.68909 -5.030662 -0 0 29.54127 -20.43871 14.41643 12.52448 4.70926 -22.92526 -6.421885 -95.95653 7.614191 34.83336 -0 0 1.610009 12.98695 14.41555 -4.750567
-611.3861 118.585 2440.115 -4.744043 -1.802394 -66.19564 4.026815 15.86624 -2.790401 -0 16.36849 -0 -13.10187 -16.95547 1.9957 4.407658 -21.91419 -3.247092 -0 4.108702 -0 2.078715 -0.930755 13.62813 -0.4434317 -3.616093 6.877134 0.2928013 13.6819 -5.056749 -1.116969 19.804 4.84718 4.737263 -16.11952 1.978381 5.559109 -26.91983 13.44134 78.31229 27.68909 -5.030662 -0 0 29.54127 -20.43871 14.41643 12.52448 4.70926 -22.92526 -6.421885 -95.95653 7.614191 34.83336 -0 0 1.610009 12.98695 14.41555 -4.750567
-615.6934 118.5545 2443.434 -4.748919 -1.789484 -66.35121 4.026815 15.86624 -2.790401 -0 16.36849 -0 -13.10187 -16.95547 1.9957 4.407658 -21.91419 -3.247092 -0 4.108702 -0 2.078715 -0.930755 13.62813 -0.4434317 -3.616093 6.877134 0.2928013 13.6819 -5.056749 -1.116969 19.804 4.84718 4.737263 -16.11952 1.978381 5.559109 -26.91983 13.44134 78.31229 27.68909 -5.030662 -0 0 29.54127 -20.43871 14.41643 12.52448 4.70926 -22.92526 -6.421885 -95.95653 7.614191 34.83336 -0 0 1.610009 12.98695 14.41555 -4.750567
